<svg xmlns="http://www.w3.org/2000/svg" viewBox="0 0 180 180"><path fill="#ec012a" fill-rule="evenodd" d="M0 0h180v180H0V0z"/><path fill="#fff" fill-rule="evenodd" d="M97.22 83.9v-1.62c-5.07 0-9.37-1.88-9.37-10.42V50.09h26.14v22.08c0 8.68-4.67 9.99-9.37 9.99v1.74h54.27l2.95-21.93h-1.22c-2.91 8.31-11.09 19.69-23.62 19.69h-11.1V49.98c12.62.16 16.25 7.22 18.26 15.54h1.36l-4.09-33.26h-1.25c-.37 7.93-1.23 15.45-14.28 15.53V16.96h8.39c12.53 0 20.72 11.39 23.62 19.69h1.22l-2.95-21.92h-51.57v1.74c4.69 0 9.37 1.31 9.37 9.99v21.4H87.84V26.77c0-8.54 4.29-10.42 9.37-10.42v-1.62H21.13l-2.95 21.93h1.22c2.91-8.31 13.7-20.3 23.18-20.3v55.51c0 7.7-6.13 10.42-11.2 10.42v1.62H54.5V16.35c15.62 0 21.09 7.56 21.44 18.24v37.27c0 7.7-6.13 10.42-11.2 10.42v1.62h32.49Zm-70.5 12.2H14.49v1.62c4.93 0 11.11 2.72 11.11 10.42v45.09c0 7.7-6.13 10.42-11.2 10.42v1.62h24.99v-1.62c-3.92 0-11.1-1.88-11.1-10.42v-42.51l21.79 47.62h1.01l21.48-50.17v44.87c0 8.68-6.82 10.49-11.06 10.49v1.74h56.17l2.95-21.93h-1.22c-2.91 8.31-11.09 19.69-23.62 19.69H84.8v-31.68c12.54.2 16.16 7.24 18.16 15.53h1.36l-4.09-33.26h-1.25c-.37 7.91-1.22 15.41-14.17 15.53V98.32h6.51c14.98 0 18.7 11.93 19.51 19.76h1.23c.99-8.87 4.84-20.13 18.26-20.13v67.31h23.22v-1.62c-5.07 0-11.2-2.72-11.2-10.42V97.71c11.81 0 20.34 14.85 22.05 20.37h1.23l-2.51-21.99H83.24c-5.54 0-9.32 2.73-11.35 7.49l-16.13 37.9-17.85-39.22c-1.43-3.12-5.62-6.17-11.16-6.17Z"/></svg>